<?xml version="1.0" encoding="utf-8"?>
<!-- Generator: Adobe Illustrator 29.7.1, SVG Export Plug-In . SVG Version: 9.03 Build 0)  -->
<svg version="1.0" id="Layer_1" xmlns="http://www.w3.org/2000/svg" xmlns:xlink="http://www.w3.org/1999/xlink" x="0px" y="0px"
	 viewBox="0 0 450 200" style="enable-background:new 0 0 450 200;" xml:space="preserve">
<style type="text/css">
	.st0{fill:#670A08;}
	.st1{clip-path:url(#SVGID_00000035519618575508911990000003052630027291451813_);}
	.st2{clip-path:url(#SVGID_00000034788377613374489350000017008510793636683447_);}
	.st3{clip-path:url(#SVGID_00000091010142499511001180000012462670810764940223_);}
	.st4{clip-path:url(#SVGID_00000066479687027664962930000010433961883515928995_);}
</style>
<path class="st0" d="M250.2,55.7l10.1-22.2h2.3l10.1,22.2h-2.5L261,34.9h0.9l-9.3,20.8H250.2z M254.2,49.8l0.7-1.9h12.9l0.7,1.9
	H254.2z"/>
<path class="st0" d="M276.5,55.7V33.5h1.9l15.3,19.3h-1V33.5h2.3v22.2h-1.9l-15.3-19.3h1v19.3H276.5z"/>
<path class="st0" d="M298.7,55.7l10.1-22.2h2.3l10.1,22.2h-2.5l-9.3-20.8h0.9l-9.3,20.8H298.7z M302.7,49.8l0.7-1.9h12.9l0.7,1.9
	H302.7z"/>
<path class="st0" d="M253.8,93.7V71.5h8.3c1.9,0,3.5,0.3,4.8,0.9c1.4,0.6,2.4,1.5,3.1,2.6c0.7,1.1,1.1,2.5,1.1,4.1
	c0,1.6-0.4,2.9-1.1,4c-0.7,1.1-1.8,2-3.1,2.6c-1.4,0.6-3,0.9-4.8,0.9h-7l1-1.1v8.1H253.8z M256.1,85.8l-1-1.1h6.9
	c2.2,0,3.9-0.5,5.1-1.4c1.2-1,1.7-2.3,1.7-4.1c0-1.8-0.6-3.2-1.7-4.1c-1.2-1-2.8-1.5-5.1-1.5h-6.9l1-1.1V85.8z"/>
<path class="st0" d="M271.6,93.7l10.1-22.2h2.3l10.1,22.2h-2.5l-9.3-20.8h1L274,93.7H271.6z M275.6,87.8l0.7-1.9h12.9l0.7,1.9H275.6
	z"/>
<path class="st0" d="M306.3,93.9c-2.8,0-5.1-0.8-6.7-2.4c-1.6-1.6-2.4-4-2.4-7.2V71.5h2.3v12.6c0,2.6,0.6,4.6,1.8,5.8
	c1.2,1.2,2.9,1.9,5,1.9s3.9-0.6,5-1.9c1.2-1.2,1.8-3.2,1.8-5.8V71.5h2.3v12.7c0,3.2-0.8,5.6-2.4,7.2
	C311.4,93.1,309.1,93.9,306.3,93.9z"/>
<path class="st0" d="M322.5,93.7V71.5h2.3v20.2h12.4v2H322.5z"/>
<path class="st0" d="M337.6,93.7l10.1-22.2h2.3l10.1,22.2h-2.5l-9.3-20.8h1L340,93.7H337.6z M341.6,87.8l0.7-1.9h12.9l0.7,1.9H341.6
	z"/>
<path class="st0" d="M253.8,131.8v-22.2h1.9l10.1,17.3h-1l10.1-17.3h1.9v22.2h-2.2v-18.7h0.5l-9.3,15.8h-1.1l-9.3-15.8h0.6v18.7
	H253.8z"/>
<path class="st0" d="M280.5,131.8l10.1-22.2h2.3l10.1,22.2h-2.5l-9.3-20.8h0.9l-9.3,20.8H280.5z M284.5,125.8l0.7-1.9h12.9l0.7,1.9
	H284.5z"/>
<path class="st0" d="M316.1,132c-1.7,0-3.2-0.3-4.6-0.8c-1.4-0.6-2.6-1.3-3.7-2.4c-1-1-1.8-2.2-2.4-3.6c-0.6-1.4-0.9-2.9-0.9-4.5
	c0-1.6,0.3-3.1,0.9-4.5c0.6-1.4,1.4-2.6,2.4-3.6c1-1,2.3-1.8,3.7-2.4c1.4-0.6,3-0.8,4.6-0.8c1.7,0,3.1,0.3,4.5,0.8
	c1.4,0.5,2.6,1.3,3.6,2.4l-1.5,1.5c-0.9-0.9-1.9-1.6-3-2c-1.1-0.4-2.3-0.6-3.6-0.6c-1.3,0-2.6,0.2-3.7,0.7c-1.1,0.5-2.1,1.1-3,1.9
	c-0.8,0.8-1.5,1.8-2,2.9c-0.5,1.1-0.7,2.3-0.7,3.7c0,1.3,0.2,2.6,0.7,3.7c0.5,1.1,1.1,2.1,2,2.9c0.8,0.8,1.8,1.5,3,1.9
	s2.4,0.7,3.7,0.7c1.3,0,2.5-0.2,3.6-0.6s2.1-1.1,3-2l1.5,1.5c-1,1.1-2.2,1.9-3.6,2.4C319.3,131.7,317.7,132,316.1,132z"/>
<path class="st0" d="M328.9,131.8v-22.2h2.3v22.2H328.9z M331,121.5v-2.1h14.4v2.1H331z M345.2,131.8v-22.2h2.3v22.2H345.2z"/>
<path class="st0" d="M351.2,131.8l10.1-22.2h2.3l10.1,22.2h-2.5l-9.3-20.8h0.9l-9.3,20.8H351.2z M355.2,125.8l0.7-1.9h12.9l0.7,1.9
	H355.2z"/>
<path class="st0" d="M377.5,131.8v-22.2h9c2.4,0,4.4,0.5,6.2,1.4c1.8,0.9,3.2,2.2,4.2,3.9c1,1.7,1.5,3.6,1.5,5.8
	c0,2.2-0.5,4.1-1.5,5.8c-1,1.7-2.4,3-4.2,3.9c-1.8,0.9-3.9,1.4-6.2,1.4H377.5z M379.8,129.8h6.6c2,0,3.7-0.4,5.1-1.2
	c1.4-0.8,2.6-1.8,3.4-3.2c0.8-1.4,1.2-2.9,1.2-4.7c0-1.8-0.4-3.4-1.2-4.7c-0.8-1.4-1.9-2.4-3.4-3.2c-1.4-0.8-3.2-1.2-5.1-1.2h-6.6
	V129.8z"/>
<g>
	<defs>
		<rect id="SVGID_1_" x="401.7" y="109.2" width="23.3" height="24"/>
	</defs>
	<clipPath id="SVGID_00000092444163068519416250000018340795293536063903_">
		<use xlink:href="#SVGID_1_"  style="overflow:visible;"/>
	</clipPath>
	<g style="clip-path:url(#SVGID_00000092444163068519416250000018340795293536063903_);">
		<path class="st0" d="M413.3,132c-1.7,0-3.2-0.3-4.6-0.8c-1.4-0.6-2.7-1.3-3.7-2.4c-1-1-1.9-2.2-2.4-3.6c-0.6-1.4-0.9-2.9-0.9-4.5
			c0-1.6,0.3-3.1,0.9-4.5c0.6-1.4,1.4-2.6,2.4-3.6c1-1,2.3-1.8,3.7-2.4c1.4-0.6,3-0.8,4.7-0.8c1.7,0,3.2,0.3,4.6,0.8
			c1.4,0.6,2.6,1.3,3.7,2.4c1,1,1.9,2.2,2.4,3.6c0.6,1.4,0.9,2.9,0.9,4.5c0,1.6-0.3,3.1-0.9,4.5c-0.6,1.4-1.4,2.6-2.4,3.6
			c-1,1-2.3,1.8-3.7,2.4C416.6,131.7,415,132,413.3,132z M413.3,129.9c1.3,0,2.6-0.2,3.7-0.7c1.1-0.5,2.1-1.1,2.9-1.9
			c0.8-0.8,1.5-1.8,1.9-2.9c0.5-1.1,0.7-2.3,0.7-3.7c0-1.3-0.2-2.6-0.7-3.7c-0.5-1.1-1.1-2.1-1.9-2.9c-0.8-0.8-1.8-1.5-2.9-1.9
			c-1.1-0.5-2.4-0.7-3.7-0.7c-1.3,0-2.6,0.2-3.7,0.7c-1.1,0.5-2.1,1.1-3,1.9c-0.8,0.8-1.5,1.8-2,2.9c-0.5,1.1-0.7,2.3-0.7,3.7
			c0,1.3,0.2,2.5,0.7,3.6c0.5,1.1,1.1,2.1,2,2.9c0.8,0.8,1.8,1.5,3,1.9S412,129.9,413.3,129.9z"/>
	</g>
</g>
<path class="st0" d="M250.2,168.6l6.1-13.3h1.4l6.1,13.3h-1.5l-5.6-12.5h0.6l-5.6,12.5H250.2z M252.6,165.1l0.4-1.1h7.7l0.4,1.1
	H252.6L252.6,165.1z"/>
<path class="st0" d="M266,168.6v-13.3h5.4c1.4,0,2.7,0.3,3.7,0.8c1.1,0.6,1.9,1.3,2.5,2.3c0.6,1,0.9,2.2,0.9,3.5
	c0,1.3-0.3,2.5-0.9,3.5c-0.6,1-1.4,1.8-2.5,2.4c-1.1,0.6-2.3,0.8-3.7,0.8H266z M267.4,167.4h3.9c1.2,0,2.2-0.2,3.1-0.7
	c0.9-0.5,1.5-1.1,2-1.9c0.5-0.8,0.7-1.8,0.7-2.8s-0.2-2-0.7-2.8s-1.2-1.4-2-1.9c-0.9-0.5-1.9-0.7-3.1-0.7h-3.9V167.4z"/>
<path class="st0" d="M285.1,168.6l-5.9-13.3h1.5l5.5,12.5h-0.8l5.6-12.5h1.4l-5.9,13.3H285.1z"/>
<path class="st0" d="M300,168.7c-1,0-1.9-0.2-2.8-0.5c-0.9-0.3-1.6-0.8-2.2-1.4c-0.6-0.6-1.1-1.3-1.5-2.2c-0.3-0.8-0.5-1.7-0.5-2.7
	s0.2-1.9,0.5-2.7c0.3-0.8,0.8-1.5,1.5-2.2s1.4-1.1,2.2-1.4c0.8-0.3,1.8-0.5,2.8-0.5c1,0,1.9,0.2,2.8,0.5c0.9,0.3,1.6,0.8,2.2,1.4
	c0.6,0.6,1.1,1.3,1.5,2.1c0.3,0.8,0.5,1.7,0.5,2.7c0,1-0.2,1.9-0.5,2.7c-0.3,0.8-0.8,1.5-1.5,2.2c-0.6,0.6-1.4,1.1-2.2,1.4
	C301.9,168.6,301,168.7,300,168.7L300,168.7z M300,167.5c0.8,0,1.5-0.1,2.2-0.4c0.7-0.3,1.3-0.7,1.8-1.2c0.5-0.5,0.9-1.1,1.2-1.8
	c0.3-0.7,0.4-1.4,0.4-2.2s-0.1-1.5-0.4-2.2c-0.3-0.7-0.7-1.3-1.2-1.8c-0.5-0.5-1.1-0.9-1.8-1.2c-0.7-0.3-1.4-0.4-2.2-0.4
	c-0.8,0-1.5,0.1-2.2,0.4s-1.3,0.7-1.8,1.2c-0.5,0.5-0.9,1.1-1.2,1.8c-0.3,0.7-0.4,1.4-0.4,2.2s0.1,1.5,0.4,2.2
	c0.3,0.7,0.7,1.3,1.2,1.8c0.5,0.5,1.1,0.9,1.8,1.2C298.4,167.4,299.2,167.5,300,167.5z"/>
<path class="st0" d="M316,168.7c-1,0-1.9-0.2-2.8-0.5c-0.9-0.3-1.6-0.8-2.2-1.4c-0.6-0.6-1.1-1.3-1.5-2.2c-0.3-0.8-0.5-1.7-0.5-2.7
	s0.2-1.9,0.5-2.7c0.3-0.8,0.8-1.5,1.5-2.2c0.6-0.6,1.4-1.1,2.2-1.4c0.9-0.3,1.8-0.5,2.8-0.5c1,0,1.9,0.2,2.8,0.5
	c0.8,0.3,1.6,0.8,2.2,1.4l-0.9,0.9c-0.6-0.6-1.2-1-1.8-1.2c-0.7-0.2-1.4-0.4-2.2-0.4c-0.8,0-1.6,0.1-2.3,0.4
	c-0.7,0.3-1.3,0.7-1.8,1.2c-0.5,0.5-0.9,1.1-1.2,1.8c-0.3,0.7-0.4,1.4-0.4,2.2c0,0.8,0.1,1.5,0.4,2.2c0.3,0.7,0.7,1.3,1.2,1.8
	c0.5,0.5,1.1,0.9,1.8,1.2c0.7,0.3,1.4,0.4,2.3,0.4c0.8,0,1.5-0.1,2.2-0.3c0.7-0.2,1.3-0.6,1.9-1.2l0.8,1.1c-0.6,0.6-1.4,1-2.2,1.3
	C317.8,168.6,316.9,168.7,316,168.7L316,168.7z M320.8,167.1l-1.4-0.2V162h1.4V167.1z"/>
<path class="st0" d="M322.7,168.6l6.1-13.3h1.4l6.1,13.3h-1.5l-5.6-12.5h0.6l-5.6,12.5H322.7z M325.1,165.1l0.4-1.1h7.7l0.4,1.1
	H325.1L325.1,165.1z"/>
<path class="st0" d="M338.5,168.6v-13.3h5.4c1.4,0,2.7,0.3,3.7,0.8c1.1,0.6,1.9,1.3,2.5,2.3c0.6,1,0.9,2.2,0.9,3.5
	c0,1.3-0.3,2.5-0.9,3.5c-0.6,1-1.4,1.8-2.5,2.4c-1.1,0.6-2.3,0.8-3.7,0.8H338.5z M339.9,167.4h3.9c1.2,0,2.2-0.2,3.1-0.7
	c0.9-0.5,1.5-1.1,2-1.9c0.5-0.8,0.7-1.8,0.7-2.8s-0.2-2-0.7-2.8c-0.5-0.8-1.2-1.4-2-1.9c-0.9-0.5-1.9-0.7-3.1-0.7h-3.9V167.4z"/>
<path class="st0" d="M351.9,168.6l6.1-13.3h1.4l6.1,13.3h-1.5l-5.6-12.5h0.6l-5.6,12.5H351.9z M354.2,165.1l0.4-1.1h7.7l0.4,1.1
	H354.2L354.2,165.1z"/>
<g>
	<defs>
		<rect id="SVGID_00000148657632660237724930000010184328730492533652_" x="25" y="23.4" width="90" height="103.1"/>
	</defs>
	<clipPath id="SVGID_00000096742954131862913960000016950215271670083725_">
		<use xlink:href="#SVGID_00000148657632660237724930000010184328730492533652_"  style="overflow:visible;"/>
	</clipPath>
	<g style="clip-path:url(#SVGID_00000096742954131862913960000016950215271670083725_);">
		<path class="st0" d="M108.6,71c-3.9-9.2-9.3-17.3-16-24.3c-6.8-6.9-14.7-12.5-23.8-16.7c-9.1-4.2-18.9-6.4-29.3-6.7h-4.1v0h-8.2
			c-1.1,0-2.1,1.7-2.1,3.8h10.3v94c0,2.8,2.3,5.1,5.1,5.1h68.9c2.8,0,5.1-2.3,5.1-5.1v-20.7C114.5,90.1,112.5,80.2,108.6,71z"/>
	</g>
</g>
<g>
	<defs>
		<rect id="SVGID_00000009554435218942886070000002801300337304163203_" x="127" y="23.4" width="101.3" height="154"/>
	</defs>
	<clipPath id="SVGID_00000011716086209283104450000006182357836771323062_">
		<use xlink:href="#SVGID_00000009554435218942886070000002801300337304163203_"  style="overflow:visible;"/>
	</clipPath>
	<g style="clip-path:url(#SVGID_00000011716086209283104450000006182357836771323062_);">
		<path class="st0" d="M225.5,173.8h-8.2V27.3h10.3c0-2.1-0.9-3.8-2.1-3.8h-12.3c-10.4,0.3-20.2,2.5-29.3,6.7
			c-9.1,4.2-17.1,9.7-23.8,16.7c-6.8,6.9-12.1,15-16,24.3c-3.9,9.2-5.9,19.1-5.9,29.5v73.3h-8.2c-1.1,0-2.1,1.7-2.1,3.8h99.7
			C227.6,175.5,226.6,173.8,225.5,173.8z"/>
	</g>
</g>
<g>
	<defs>
		<rect id="SVGID_00000106843698124701969550000000844822651079585925_" x="25" y="157.2" width="24.7" height="20"/>
	</defs>
	<clipPath id="SVGID_00000107558172289423146080000002601119134062111383_">
		<use xlink:href="#SVGID_00000106843698124701969550000000844822651079585925_"  style="overflow:visible;"/>
	</clipPath>
	<g style="clip-path:url(#SVGID_00000107558172289423146080000002601119134062111383_);">
		<path class="st0" d="M47.4,172.8h-8.2v-15.3h-3.8v7.1c0,4.5-3.7,8.2-8.2,8.2c-1.1,0-2.1,1.7-2.1,3.8h24.4
			C49.4,174.5,48.5,172.8,47.4,172.8L47.4,172.8z"/>
	</g>
</g>
</svg>
