<?xml version="1.0" encoding="utf-8"?>
<!-- Generator: Adobe Illustrator 29.7.1, SVG Export Plug-In . SVG Version: 9.03 Build 0)  -->
<svg version="1.0" id="Layer_1" xmlns="http://www.w3.org/2000/svg" xmlns:xlink="http://www.w3.org/1999/xlink" x="0px" y="0px"
	 viewBox="0 0 500 303" style="enable-background:new 0 0 500 303;" xml:space="preserve">
<style type="text/css">
	.st0{clip-path:url(#SVGID_00000031188053956078884360000017905330338525926076_);}
	.st1{fill:#FFFFFF;}
	.st2{clip-path:url(#SVGID_00000037668715164893773210000011186480498453048458_);}
	.st3{clip-path:url(#SVGID_00000181073299121655286010000012664794005250588579_);}
	.st4{clip-path:url(#SVGID_00000070105274616682180470000009471285486423665537_);}
	.st5{clip-path:url(#SVGID_00000007395169513462952280000012047095634696306822_);}
	.st6{clip-path:url(#SVGID_00000033358601531646193390000016913692473979769525_);}
	.st7{clip-path:url(#SVGID_00000062179737414199416780000001390577185439693753_);}
	.st8{clip-path:url(#SVGID_00000015344090917053312050000016303668124848819122_);}
	.st9{clip-path:url(#SVGID_00000069384726945588967260000007627113932470987663_);}
	.st10{clip-path:url(#SVGID_00000126311016100533329090000000060279121378187662_);}
	.st11{clip-path:url(#SVGID_00000129925622722756704230000000231019079088326069_);}
	.st12{clip-path:url(#SVGID_00000017485680761145921900000007285765738385951367_);}
</style>
<g>
	<g>
		<defs>
			<rect id="SVGID_1_" x="50" y="200.3" width="24.7" height="25.3"/>
		</defs>
		<clipPath id="SVGID_00000016047673155308113370000012129921398384829353_">
			<use xlink:href="#SVGID_1_"  style="overflow:visible;"/>
		</clipPath>
		<g style="clip-path:url(#SVGID_00000016047673155308113370000012129921398384829353_);">
			<path class="st1" d="M50.1,225.4L61,201.6h2.5l10.9,23.8h-2.7l-10-22.3h1l-10,22.3H50.1z M54.4,219l0.7-2h13.8l0.7,2H54.4z"/>
		</g>
	</g>
	<path class="st1" d="M78.3,225.4v-23.8h2.1l16.4,20.7h-1.1v-20.7h2.5v23.8h-2.1l-16.4-20.7h1.1v20.7H78.3z"/>
	<path class="st1" d="M102.1,225.4l10.9-23.8h2.5l10.9,23.8h-2.7l-10-22.3h1l-10,22.3H102.1z M106.4,219l0.7-2H121l0.8,2H106.4
		L106.4,219z"/>
	<path class="st1" d="M139.2,225.4v-23.8h8.9c2,0,3.8,0.3,5.2,1c1.4,0.6,2.6,1.6,3.3,2.8c0.8,1.2,1.2,2.7,1.2,4.4
		c0,1.7-0.4,3.1-1.2,4.3c-0.8,1.2-1.9,2.2-3.3,2.8c-1.5,0.7-3.2,1-5.2,1h-7.5l1.1-1.2v8.7H139.2z M141.7,216.9l-1.1-1.2h7.4
		c2.4,0,4.2-0.5,5.4-1.6c1.2-1,1.8-2.5,1.8-4.4s-0.6-3.4-1.8-4.4c-1.2-1-3-1.6-5.4-1.6h-7.4l1.1-1.2V216.9z"/>
	<path class="st1" d="M158.3,225.4l10.9-23.8h2.5l10.9,23.8h-2.7l-10-22.3h1l-10,22.3H158.3z M162.6,219l0.7-2h13.8l0.8,2H162.6
		L162.6,219z"/>
	<path class="st1" d="M195.6,225.6c-3,0-5.4-0.9-7.2-2.6c-1.7-1.8-2.6-4.3-2.6-7.8v-13.6h2.5v13.5c0,2.8,0.6,4.9,1.9,6.2
		c1.3,1.3,3.1,2,5.4,2c2.3,0,4.1-0.7,5.4-2c1.3-1.3,1.9-3.4,1.9-6.2v-13.5h2.4v13.6c0,3.4-0.9,6-2.6,7.8S198.6,225.6,195.6,225.6z"
		/>
	<path class="st1" d="M212.9,225.4v-23.8h2.5v21.6h13.3v2.2H212.9z"/>
	<path class="st1" d="M229.2,225.4l10.9-23.8h2.5l10.9,23.8h-2.7l-10-22.3h1l-10,22.3H229.2z M233.4,219l0.7-2H248l0.7,2H233.4
		L233.4,219z"/>
	<path class="st1" d="M266.3,225.4v-23.8h2.1l10.9,18.6h-1.1l10.8-18.6h2.1v23.8h-2.4v-20h0.6l-9.9,17H278l-10-17h0.6v20H266.3z"/>
	<path class="st1" d="M294.9,225.4l10.9-23.8h2.5l10.9,23.8h-2.7l-10-22.3h1l-10,22.3H294.9z M299.2,219l0.8-2h13.8l0.7,2H299.2
		L299.2,219z"/>
	<path class="st1" d="M333.1,225.6c-1.8,0-3.4-0.3-5-0.9c-1.5-0.6-2.8-1.4-3.9-2.5c-1.1-1.1-2-2.4-2.6-3.8c-0.6-1.5-0.9-3.1-0.9-4.8
		c0-1.7,0.3-3.4,0.9-4.8c0.6-1.5,1.5-2.8,2.6-3.8c1.1-1.1,2.4-1.9,4-2.5c1.5-0.6,3.2-0.9,5-0.9s3.3,0.3,4.9,0.9
		c1.5,0.6,2.8,1.4,3.8,2.6l-1.6,1.6c-1-1-2.1-1.7-3.2-2.2c-1.2-0.4-2.4-0.7-3.8-0.7c-1.4,0-2.8,0.2-4,0.7c-1.2,0.5-2.3,1.2-3.2,2.1
		c-0.9,0.9-1.6,1.9-2.1,3.1c-0.5,1.2-0.8,2.5-0.8,3.9s0.3,2.7,0.8,3.9c0.5,1.2,1.2,2.2,2.1,3.1c0.9,0.9,2,1.6,3.2,2.1
		c1.2,0.5,2.6,0.7,4,0.7s2.6-0.2,3.8-0.7c1.2-0.5,2.3-1.2,3.2-2.2l1.6,1.6c-1,1.2-2.3,2-3.8,2.6
		C336.5,225.3,334.9,225.6,333.1,225.6z"/>
	<path class="st1" d="M346.9,225.4v-23.8h2.5v23.8H346.9z M349.1,214.4v-2.2h15.4v2.2H349.1z M364.3,225.4v-23.8h2.5v23.8H364.3z"/>
	<path class="st1" d="M370.7,225.4l10.9-23.8h2.5l10.9,23.8h-2.7l-10-22.3h1l-10,22.3H370.7z M375,219l0.7-2h13.8l0.7,2H375L375,219
		z"/>
	<path class="st1" d="M398.9,225.4v-23.8h9.7c2.5,0,4.8,0.5,6.7,1.5c1.9,1,3.4,2.4,4.5,4.2c1.1,1.8,1.6,3.9,1.6,6.2
		c0,2.3-0.5,4.4-1.6,6.2c-1.1,1.8-2.6,3.2-4.5,4.2c-1.9,1-4.1,1.5-6.7,1.5L398.9,225.4L398.9,225.4z M401.5,223.2h7
		c2.1,0,3.9-0.4,5.5-1.2c1.6-0.8,2.8-2,3.6-3.4c0.9-1.5,1.3-3.1,1.3-5c0-1.9-0.4-3.6-1.3-5.1c-0.9-1.5-2.1-2.6-3.6-3.4
		c-1.6-0.8-3.4-1.2-5.5-1.2h-7V223.2z"/>
	<g>
		<defs>
			<rect id="SVGID_00000175312828341082127470000004274091507402820537_" x="424" y="200.3" width="26" height="25.3"/>
		</defs>
		<clipPath id="SVGID_00000048465380277406871790000001332112568994184607_">
			<use xlink:href="#SVGID_00000175312828341082127470000004274091507402820537_"  style="overflow:visible;"/>
		</clipPath>
		<g style="clip-path:url(#SVGID_00000048465380277406871790000001332112568994184607_);">
			<path class="st1" d="M437.4,225.6c-1.8,0-3.5-0.3-5-0.9c-1.5-0.6-2.9-1.4-4-2.6c-1.1-1.1-2-2.4-2.6-3.8c-0.6-1.5-0.9-3.1-0.9-4.8
				c0-1.8,0.3-3.3,0.9-4.8c0.6-1.5,1.5-2.7,2.6-3.8c1.1-1.1,2.4-1.9,4-2.5c1.5-0.6,3.2-0.9,5-0.9c1.8,0,3.5,0.3,5,0.9
				c1.5,0.6,2.8,1.4,4,2.5c1.1,1.1,2,2.4,2.6,3.8s0.9,3.1,0.9,4.8s-0.3,3.4-0.9,4.8s-1.5,2.8-2.6,3.8c-1.1,1.1-2.4,1.9-4,2.5
				C440.9,225.3,439.2,225.6,437.4,225.6L437.4,225.6z M437.4,223.3c1.4,0,2.8-0.2,4-0.7c1.2-0.5,2.3-1.2,3.2-2.1
				c0.9-0.9,1.6-1.9,2.1-3.1c0.5-1.2,0.7-2.5,0.7-3.9c0-1.4-0.2-2.7-0.7-3.9c-0.5-1.2-1.2-2.2-2.1-3.1c-0.9-0.9-1.9-1.6-3.2-2.1
				c-1.2-0.5-2.5-0.7-4-0.7c-1.4,0-2.8,0.2-4,0.7c-1.2,0.5-2.3,1.2-3.2,2.1s-1.6,1.9-2.1,3.1c-0.5,1.2-0.7,2.5-0.7,3.9
				c0,1.4,0.2,2.7,0.7,3.9c0.5,1.2,1.2,2.2,2.1,3.1c0.9,0.9,2,1.6,3.2,2.1C434.7,223.1,436,223.3,437.4,223.3z"/>
		</g>
	</g>
	<g>
		<defs>
			<rect id="SVGID_00000170271601506682256680000011409536983790496148_" x="181.3" y="255" width="17.3" height="16.5"/>
		</defs>
		<clipPath id="SVGID_00000129910526564204974520000014065516672714574736_">
			<use xlink:href="#SVGID_00000170271601506682256680000011409536983790496148_"  style="overflow:visible;"/>
		</clipPath>
		<g style="clip-path:url(#SVGID_00000129910526564204974520000014065516672714574736_);">
			<path class="st1" d="M182.2,271.3l7.3-15.9h1.7l7.3,15.9h-1.8l-6.7-14.9h0.7l-6.7,14.9H182.2z M185,267.1l0.5-1.4h9.2l0.5,1.4
				H185z"/>
		</g>
	</g>
	<g>
		<defs>
			<rect id="SVGID_00000132080973311966632870000011534288291015424189_" x="200" y="255" width="16" height="16.5"/>
		</defs>
		<clipPath id="SVGID_00000034082992384319155170000012891840306523318697_">
			<use xlink:href="#SVGID_00000132080973311966632870000011534288291015424189_"  style="overflow:visible;"/>
		</clipPath>
		<g style="clip-path:url(#SVGID_00000034082992384319155170000012891840306523318697_);">
			<path class="st1" d="M201,271.3v-15.9h6.5c1.7,0,3.2,0.3,4.5,1c1.3,0.7,2.3,1.6,3,2.8c0.7,1.2,1.1,2.6,1.1,4.1
				c0,1.6-0.4,2.9-1.1,4.1c-0.7,1.2-1.7,2.1-3,2.8c-1.3,0.7-2.8,1-4.5,1L201,271.3L201,271.3z M202.7,269.9h4.7
				c1.4,0,2.6-0.3,3.7-0.8c1-0.6,1.8-1.3,2.4-2.3c0.6-1,0.9-2.1,0.9-3.4c0-1.3-0.3-2.4-0.9-3.4c-0.6-1-1.4-1.7-2.4-2.3
				c-1-0.6-2.3-0.8-3.7-0.8h-4.7V269.9z"/>
		</g>
	</g>
	<g>
		<defs>
			<rect id="SVGID_00000079458999330010490980000018407441480908192391_" x="216" y="255" width="17.3" height="16.5"/>
		</defs>
		<clipPath id="SVGID_00000021837453317258991210000009036189735339461557_">
			<use xlink:href="#SVGID_00000079458999330010490980000018407441480908192391_"  style="overflow:visible;"/>
		</clipPath>
		<g style="clip-path:url(#SVGID_00000021837453317258991210000009036189735339461557_);">
			<path class="st1" d="M223.7,271.3l-7-15.9h1.8l6.6,14.9h-1l6.6-14.9h1.7l-7,15.9H223.7z"/>
		</g>
	</g>
	<g>
		<defs>
			<rect id="SVGID_00000104678654223054432710000009039543161090650550_" x="232" y="255" width="18.7" height="16.5"/>
		</defs>
		<clipPath id="SVGID_00000034787385053710154490000005563980013047901611_">
			<use xlink:href="#SVGID_00000104678654223054432710000009039543161090650550_"  style="overflow:visible;"/>
		</clipPath>
		<g style="clip-path:url(#SVGID_00000034787385053710154490000005563980013047901611_);">
			<path class="st1" d="M241.5,271.5c-1.2,0-2.3-0.2-3.3-0.6c-1-0.4-1.9-1-2.7-1.7c-0.8-0.7-1.3-1.6-1.8-2.6c-0.4-1-0.6-2-0.6-3.2
				c0-1.2,0.2-2.2,0.6-3.2c0.4-1,1-1.8,1.8-2.6c0.7-0.7,1.6-1.3,2.6-1.7c1-0.4,2.1-0.6,3.3-0.6c1.2,0,2.3,0.2,3.3,0.6
				c1,0.4,1.9,1,2.6,1.7c0.7,0.7,1.3,1.6,1.7,2.6c0.4,1,0.6,2.1,0.6,3.2s-0.2,2.2-0.6,3.2c-0.4,1-1,1.8-1.7,2.6s-1.6,1.3-2.6,1.7
				C243.8,271.3,242.7,271.5,241.5,271.5L241.5,271.5z M241.5,270c1,0,1.8-0.2,2.6-0.5c0.8-0.3,1.5-0.8,2.1-1.4
				c0.6-0.6,1.1-1.3,1.4-2.1c0.3-0.8,0.5-1.7,0.5-2.6c0-0.9-0.2-1.8-0.5-2.6c-0.3-0.8-0.8-1.5-1.4-2.1c-0.6-0.6-1.3-1.1-2.1-1.4
				c-0.8-0.3-1.7-0.5-2.6-0.5c-0.9,0-1.8,0.2-2.7,0.5c-0.8,0.3-1.5,0.8-2.1,1.4c-0.6,0.6-1.1,1.3-1.4,2.1c-0.3,0.8-0.5,1.7-0.5,2.6
				c0,1,0.2,1.8,0.5,2.6c0.3,0.8,0.8,1.5,1.4,2.1c0.6,0.6,1.3,1.1,2.1,1.4C239.7,269.8,240.6,270,241.5,270z"/>
		</g>
	</g>
	<g>
		<defs>
			<rect id="SVGID_00000093863870703377309710000006729821938145364643_" x="252" y="255" width="14.7" height="16.5"/>
		</defs>
		<clipPath id="SVGID_00000028316244552218211950000008581950129609106597_">
			<use xlink:href="#SVGID_00000093863870703377309710000006729821938145364643_"  style="overflow:visible;"/>
		</clipPath>
		<g style="clip-path:url(#SVGID_00000028316244552218211950000008581950129609106597_);">
			<path class="st1" d="M260.6,271.5c-1.2,0-2.3-0.2-3.3-0.6c-1-0.4-1.9-1-2.7-1.7c-0.8-0.7-1.3-1.6-1.8-2.6c-0.4-1-0.6-2.1-0.6-3.2
				c0-1.2,0.2-2.2,0.6-3.2c0.4-1,1-1.8,1.8-2.6c0.8-0.7,1.6-1.3,2.7-1.7c1-0.4,2.1-0.6,3.3-0.6c1.2,0,2.3,0.2,3.3,0.6
				c1,0.4,1.9,1,2.6,1.7l-1,1.1c-0.7-0.7-1.4-1.1-2.2-1.4c-0.8-0.3-1.7-0.4-2.6-0.4c-1,0-1.9,0.2-2.7,0.5c-0.8,0.3-1.5,0.8-2.2,1.4
				c-0.6,0.6-1.1,1.3-1.4,2.1c-0.3,0.8-0.5,1.7-0.5,2.6c0,0.9,0.2,1.8,0.5,2.6c0.3,0.8,0.8,1.5,1.4,2.1c0.6,0.6,1.3,1.1,2.2,1.4
				c0.8,0.3,1.7,0.5,2.7,0.5c0.9,0,1.8-0.1,2.6-0.4c0.8-0.3,1.6-0.7,2.2-1.4l1,1.3c-0.8,0.7-1.6,1.2-2.7,1.5
				C262.7,271.3,261.7,271.5,260.6,271.5L260.6,271.5z M266.4,269.5l-1.6-0.2v-5.8h1.6V269.5L266.4,269.5z"/>
		</g>
	</g>
	<g>
		<defs>
			<rect id="SVGID_00000171699545557133075770000017565816797581870218_" x="268" y="255" width="17.3" height="16.5"/>
		</defs>
		<clipPath id="SVGID_00000007414234387619876240000015498072975178275989_">
			<use xlink:href="#SVGID_00000171699545557133075770000017565816797581870218_"  style="overflow:visible;"/>
		</clipPath>
		<g style="clip-path:url(#SVGID_00000007414234387619876240000015498072975178275989_);">
			<path class="st1" d="M268.6,271.3l7.3-15.9h1.7l7.3,15.9H283l-6.7-14.9h0.7l-6.7,14.9H268.6z M271.5,267.1l0.5-1.4h9.2l0.5,1.4
				H271.5z"/>
		</g>
	</g>
	<g>
		<defs>
			<rect id="SVGID_00000044877471106165682370000006652665701990016434_" x="286.7" y="255" width="16" height="16.5"/>
		</defs>
		<clipPath id="SVGID_00000057133902789484585100000017874435965102294975_">
			<use xlink:href="#SVGID_00000044877471106165682370000006652665701990016434_"  style="overflow:visible;"/>
		</clipPath>
		<g style="clip-path:url(#SVGID_00000057133902789484585100000017874435965102294975_);">
			<path class="st1" d="M287.4,271.3v-15.9h6.5c1.7,0,3.2,0.3,4.5,1c1.3,0.7,2.3,1.6,3,2.8c0.7,1.2,1.1,2.6,1.1,4.1
				c0,1.6-0.4,2.9-1.1,4.1c-0.7,1.2-1.7,2.1-3,2.8c-1.3,0.7-2.8,1-4.5,1L287.4,271.3L287.4,271.3z M289.1,269.9h4.7
				c1.4,0,2.6-0.3,3.7-0.8c1-0.6,1.8-1.3,2.4-2.3c0.6-1,0.9-2.1,0.9-3.4c0-1.3-0.3-2.4-0.9-3.4c-0.6-1-1.4-1.7-2.4-2.3
				c-1-0.6-2.3-0.8-3.7-0.8h-4.7V269.9z"/>
		</g>
	</g>
	<g>
		<defs>
			<rect id="SVGID_00000177474211192845068910000012925559665416435893_" x="302.7" y="255" width="17.3" height="16.5"/>
		</defs>
		<clipPath id="SVGID_00000143602340463624275620000013459584923795543217_">
			<use xlink:href="#SVGID_00000177474211192845068910000012925559665416435893_"  style="overflow:visible;"/>
		</clipPath>
		<g style="clip-path:url(#SVGID_00000143602340463624275620000013459584923795543217_);">
			<path class="st1" d="M303.4,271.3l7.3-15.9h1.7l7.3,15.9h-1.8l-6.7-14.9h0.7l-6.7,14.9H303.4z M306.2,267.1l0.5-1.4h9.2l0.5,1.4
				H306.2z"/>
		</g>
	</g>
	<g>
		<defs>
			<rect id="SVGID_00000098918166080030966830000007666601912242092946_" x="158.7" y="18.5" width="81.3" height="92.5"/>
		</defs>
		<clipPath id="SVGID_00000166639701153672013100000012806948529782766983_">
			<use xlink:href="#SVGID_00000098918166080030966830000007666601912242092946_"  style="overflow:visible;"/>
		</clipPath>
		<g style="clip-path:url(#SVGID_00000166639701153672013100000012806948529782766983_);">
			<path class="st1" d="M234.2,61.1c-3.5-8.3-8.3-15.5-14.3-21.7c-6.1-6.2-13.2-11.1-21.3-14.9c-8.1-3.7-16.9-5.7-26.2-6h-3.7v0
				h-7.3c-1,0-1.8,1.5-1.8,3.4h9.2v84c0,2.5,2.1,4.6,4.6,4.6h61.6c2.5,0,4.6-2.1,4.6-4.6V87.5C239.4,78.2,237.7,69.4,234.2,61.1z"/>
		</g>
	</g>
	<g>
		<defs>
			<rect id="SVGID_00000115512281655238492510000000810225545724900795_" x="250.7" y="18.5" width="90.7" height="139.1"/>
		</defs>
		<clipPath id="SVGID_00000005241439541967773970000017926582103213435839_">
			<use xlink:href="#SVGID_00000115512281655238492510000000810225545724900795_"  style="overflow:visible;"/>
		</clipPath>
		<g style="clip-path:url(#SVGID_00000005241439541967773970000017926582103213435839_);">
			<path class="st1" d="M338.7,153h-7.3V22h9.2c0-1.9-0.8-3.4-1.8-3.4h-11c-9.3,0.2-18,2.2-26.2,6c-8.2,3.7-15.3,8.7-21.3,14.9
				c-6.1,6.2-10.8,13.4-14.3,21.7c-3.5,8.3-5.2,17.1-5.2,26.4V153h-7.4c-1,0-1.8,1.5-1.8,3.4h89.1C340.5,154.6,339.7,153,338.7,153z
				"/>
		</g>
	</g>
	<path class="st1" d="M179.4,152.1h-7.3v-13.7h-3.4v6.4c0,4.1-3.3,7.3-7.3,7.3c-1,0-1.8,1.5-1.8,3.4h21.8
		C181.3,153.6,180.4,152.1,179.4,152.1L179.4,152.1z"/>
</g>
</svg>
